<mxfile host="app.diagrams.net" modified="2023-08-18T08:30:46.315Z" agent="Mozilla/5.0 (Macintosh; Intel Mac OS X 10_15_7) AppleWebKit/537.36 (KHTML, like Gecko) Chrome/115.0.0.0 Safari/537.36" etag="bQE93SeIKiXeh1dg4GYa" version="21.6.6" type="github">
  <diagram name="Page-1" id="_tHQY5iwx0Lg_tgGtzUp">
    <mxGraphModel dx="1194" dy="679" grid="1" gridSize="10" guides="1" tooltips="1" connect="1" arrows="1" fold="1" page="1" pageScale="1" pageWidth="850" pageHeight="1100" math="0" shadow="0">
      <root>
        <mxCell id="0" />
        <mxCell id="1" parent="0" />
        <mxCell id="HJjArt5ALG9JVLSgc6TU-1" value="" style="rounded=0;whiteSpace=wrap;html=1;" vertex="1" parent="1">
          <mxGeometry x="20" y="170" width="680" height="590" as="geometry" />
        </mxCell>
        <mxCell id="HJjArt5ALG9JVLSgc6TU-2" value="" style="rounded=0;whiteSpace=wrap;html=1;" vertex="1" parent="1">
          <mxGeometry x="360" y="230" width="320" height="420" as="geometry" />
        </mxCell>
        <mxCell id="HJjArt5ALG9JVLSgc6TU-3" value="Miravia App" style="text;html=1;strokeColor=none;fillColor=none;align=center;verticalAlign=middle;whiteSpace=wrap;rounded=0;fontSize=20;" vertex="1" parent="1">
          <mxGeometry x="30" y="170" width="130" height="50" as="geometry" />
        </mxCell>
        <mxCell id="HJjArt5ALG9JVLSgc6TU-4" value="Log System" style="text;html=1;strokeColor=none;fillColor=none;align=center;verticalAlign=middle;whiteSpace=wrap;rounded=0;fontSize=20;" vertex="1" parent="1">
          <mxGeometry x="360" y="230" width="130" height="50" as="geometry" />
        </mxCell>
        <mxCell id="HJjArt5ALG9JVLSgc6TU-6" value="" style="rounded=0;whiteSpace=wrap;html=1;" vertex="1" parent="1">
          <mxGeometry x="40" y="230" width="290" height="510" as="geometry" />
        </mxCell>
        <mxCell id="HJjArt5ALG9JVLSgc6TU-7" value="Business Area" style="text;html=1;strokeColor=none;fillColor=none;align=center;verticalAlign=middle;whiteSpace=wrap;rounded=0;fontSize=20;" vertex="1" parent="1">
          <mxGeometry x="40" y="230" width="190" height="50" as="geometry" />
        </mxCell>
        <mxCell id="HJjArt5ALG9JVLSgc6TU-10" value="" style="edgeStyle=orthogonalEdgeStyle;rounded=0;orthogonalLoop=1;jettySize=auto;html=1;" edge="1" parent="1" source="HJjArt5ALG9JVLSgc6TU-8" target="HJjArt5ALG9JVLSgc6TU-9">
          <mxGeometry relative="1" as="geometry" />
        </mxCell>
        <mxCell id="HJjArt5ALG9JVLSgc6TU-8" value="&lt;font style=&quot;font-size: 16px;&quot;&gt;&amp;nbsp; Chameleon Interface&lt;/font&gt;" style="rounded=0;whiteSpace=wrap;html=1;align=left;fillColor=#d5e8d4;strokeColor=#82b366;" vertex="1" parent="1">
          <mxGeometry x="340" y="310" width="170" height="50" as="geometry" />
        </mxCell>
        <mxCell id="HJjArt5ALG9JVLSgc6TU-31" style="edgeStyle=orthogonalEdgeStyle;rounded=0;orthogonalLoop=1;jettySize=auto;html=1;exitX=1;exitY=0.5;exitDx=0;exitDy=0;entryX=0.75;entryY=0;entryDx=0;entryDy=0;" edge="1" parent="1" source="HJjArt5ALG9JVLSgc6TU-9" target="HJjArt5ALG9JVLSgc6TU-29">
          <mxGeometry relative="1" as="geometry" />
        </mxCell>
        <mxCell id="HJjArt5ALG9JVLSgc6TU-9" value="&lt;font style=&quot;font-size: 16px;&quot;&gt;&amp;nbsp; Native Interface&lt;/font&gt;" style="rounded=0;whiteSpace=wrap;html=1;align=left;fillColor=#d5e8d4;strokeColor=#82b366;" vertex="1" parent="1">
          <mxGeometry x="340" y="380" width="170" height="50" as="geometry" />
        </mxCell>
        <mxCell id="HJjArt5ALG9JVLSgc6TU-15" value="" style="edgeStyle=orthogonalEdgeStyle;rounded=0;orthogonalLoop=1;jettySize=auto;html=1;" edge="1" parent="1" source="HJjArt5ALG9JVLSgc6TU-11" target="HJjArt5ALG9JVLSgc6TU-8">
          <mxGeometry relative="1" as="geometry" />
        </mxCell>
        <mxCell id="HJjArt5ALG9JVLSgc6TU-11" value="&lt;font style=&quot;font-size: 16px;&quot;&gt;1. Chameleon Developing&lt;/font&gt;" style="rounded=0;whiteSpace=wrap;html=1;align=left;" vertex="1" parent="1">
          <mxGeometry x="60" y="310" width="250" height="50" as="geometry" />
        </mxCell>
        <mxCell id="HJjArt5ALG9JVLSgc6TU-16" value="" style="edgeStyle=orthogonalEdgeStyle;rounded=0;orthogonalLoop=1;jettySize=auto;html=1;" edge="1" parent="1" source="HJjArt5ALG9JVLSgc6TU-12" target="HJjArt5ALG9JVLSgc6TU-9">
          <mxGeometry relative="1" as="geometry" />
        </mxCell>
        <mxCell id="HJjArt5ALG9JVLSgc6TU-12" value="&lt;font style=&quot;font-size: 16px;&quot;&gt;2. Native Coding Developing&lt;/font&gt;" style="rounded=0;whiteSpace=wrap;html=1;align=left;" vertex="1" parent="1">
          <mxGeometry x="60" y="380" width="250" height="50" as="geometry" />
        </mxCell>
        <mxCell id="HJjArt5ALG9JVLSgc6TU-17" value="" style="edgeStyle=orthogonalEdgeStyle;rounded=0;orthogonalLoop=1;jettySize=auto;html=1;entryX=0;entryY=0.5;entryDx=0;entryDy=0;" edge="1" parent="1" source="HJjArt5ALG9JVLSgc6TU-13" target="HJjArt5ALG9JVLSgc6TU-9">
          <mxGeometry relative="1" as="geometry">
            <Array as="points">
              <mxPoint x="320" y="475" />
              <mxPoint x="320" y="405" />
            </Array>
          </mxGeometry>
        </mxCell>
        <mxCell id="HJjArt5ALG9JVLSgc6TU-13" value="&lt;font style=&quot;font-size: 16px;&quot;&gt;3. Debuging&lt;/font&gt;" style="rounded=0;whiteSpace=wrap;html=1;align=left;" vertex="1" parent="1">
          <mxGeometry x="60" y="450" width="250" height="50" as="geometry" />
        </mxCell>
        <mxCell id="HJjArt5ALG9JVLSgc6TU-19" value="" style="edgeStyle=orthogonalEdgeStyle;rounded=0;orthogonalLoop=1;jettySize=auto;html=1;entryX=0;entryY=0.5;entryDx=0;entryDy=0;" edge="1" parent="1" source="HJjArt5ALG9JVLSgc6TU-14" target="HJjArt5ALG9JVLSgc6TU-9">
          <mxGeometry relative="1" as="geometry">
            <Array as="points">
              <mxPoint x="320" y="545" />
              <mxPoint x="320" y="405" />
            </Array>
          </mxGeometry>
        </mxCell>
        <mxCell id="HJjArt5ALG9JVLSgc6TU-14" value="&lt;font style=&quot;font-size: 16px;&quot;&gt;&amp;nbsp;.........&lt;/font&gt;" style="rounded=0;whiteSpace=wrap;html=1;align=left;" vertex="1" parent="1">
          <mxGeometry x="60" y="520" width="250" height="50" as="geometry" />
        </mxCell>
        <mxCell id="HJjArt5ALG9JVLSgc6TU-29" value="" style="rounded=0;whiteSpace=wrap;html=1;fillColor=#d5e8d4;strokeColor=#82b366;" vertex="1" parent="1">
          <mxGeometry x="380" y="440" width="240" height="200" as="geometry" />
        </mxCell>
        <mxCell id="HJjArt5ALG9JVLSgc6TU-20" value="&lt;font style=&quot;font-size: 16px;&quot;&gt;1. Log Leveling&lt;/font&gt;" style="rounded=0;whiteSpace=wrap;html=1;align=left;fillColor=#dae8fc;strokeColor=#6c8ebf;" vertex="1" parent="1">
          <mxGeometry x="390" y="450" width="220" height="50" as="geometry" />
        </mxCell>
        <mxCell id="HJjArt5ALG9JVLSgc6TU-21" value="&lt;font style=&quot;font-size: 16px;&quot;&gt;2. Orange Control&lt;/font&gt;" style="rounded=0;whiteSpace=wrap;html=1;align=left;fillColor=#dae8fc;strokeColor=#6c8ebf;" vertex="1" parent="1">
          <mxGeometry x="390" y="510" width="220" height="50" as="geometry" />
        </mxCell>
        <mxCell id="HJjArt5ALG9JVLSgc6TU-26" value="" style="edgeStyle=orthogonalEdgeStyle;rounded=0;orthogonalLoop=1;jettySize=auto;html=1;" edge="1" parent="1" source="HJjArt5ALG9JVLSgc6TU-22" target="HJjArt5ALG9JVLSgc6TU-23">
          <mxGeometry relative="1" as="geometry" />
        </mxCell>
        <mxCell id="HJjArt5ALG9JVLSgc6TU-27" style="edgeStyle=orthogonalEdgeStyle;rounded=0;orthogonalLoop=1;jettySize=auto;html=1;exitX=0.5;exitY=1;exitDx=0;exitDy=0;entryX=0;entryY=0.5;entryDx=0;entryDy=0;" edge="1" parent="1" source="HJjArt5ALG9JVLSgc6TU-22" target="HJjArt5ALG9JVLSgc6TU-24">
          <mxGeometry relative="1" as="geometry">
            <Array as="points">
              <mxPoint x="500" y="660" />
              <mxPoint x="750" y="660" />
            </Array>
          </mxGeometry>
        </mxCell>
        <mxCell id="HJjArt5ALG9JVLSgc6TU-22" value="&lt;font style=&quot;font-size: 16px;&quot;&gt;3. Different Log Output&lt;/font&gt;" style="rounded=0;whiteSpace=wrap;html=1;align=left;fillColor=#dae8fc;strokeColor=#6c8ebf;" vertex="1" parent="1">
          <mxGeometry x="390" y="570" width="220" height="50" as="geometry" />
        </mxCell>
        <mxCell id="HJjArt5ALG9JVLSgc6TU-23" value="&lt;span style=&quot;font-size: 16px;&quot;&gt;&amp;nbsp; System Terminal&lt;/span&gt;" style="rounded=0;whiteSpace=wrap;html=1;align=left;" vertex="1" parent="1">
          <mxGeometry x="415" y="680" width="170" height="50" as="geometry" />
        </mxCell>
        <mxCell id="HJjArt5ALG9JVLSgc6TU-24" value="&lt;span style=&quot;font-size: 16px;&quot;&gt;&amp;nbsp; 全链路日志&lt;/span&gt;" style="rounded=0;whiteSpace=wrap;html=1;align=left;" vertex="1" parent="1">
          <mxGeometry x="770" y="635" width="170" height="50" as="geometry" />
        </mxCell>
      </root>
    </mxGraphModel>
  </diagram>
</mxfile>
